<svg width="256" height="361" viewBox="0 0 256 361" fill="none" xmlns="http://www.w3.org/2000/svg">
<path d="M127.399 360.088L23.217 331.166L0 70.7656H255.11L231.869 331.126L127.399 360.088V360.088Z" fill="#264DE4"/>
<path d="M211.972 314.547L231.832 92.0566H127.555V337.95L211.972 314.547V314.547Z" fill="#2965F1"/>
<path d="M53.224 188.636L56.086 220.573H127.555V188.636H53.224Z" fill="#EBEBEB"/>
<path d="M47.472 123.995L50.375 155.932H127.555V123.995H47.472V123.995Z" fill="#EBEBEB"/>
<path d="M127.555 271.58L127.415 271.617L91.8471 262.013L89.5731 236.542H57.5131L61.9871 286.688L127.408 304.848L127.555 304.808V271.58Z" fill="#EBEBEB"/>
<path d="M60.0391 0H98.7191V16.176H76.2151V32.352H98.7211V48.527H60.0391V0Z" fill="black"/>
<path d="M106.456 0H145.137V14.066H122.632V16.879H145.137V49.231H106.457V34.46H128.962V31.647H106.455V0H106.456Z" fill="black"/>
<path d="M152.874 0H191.555V14.066H169.05V16.879H191.555V49.231H152.874V34.46H175.379V31.647H152.875V0H152.874Z" fill="black"/>
<path d="M201.682 188.636L207.447 123.995H127.445V155.932H172.447L169.541 188.636H127.445V220.573H166.772L163.064 261.993L127.444 271.607V304.833L192.917 286.688L193.397 281.292L200.903 197.212L201.682 188.636V188.636Z" fill="white"/>
</svg>
