<svg width="300" height="424" viewBox="0 0 300 424" fill="none" xmlns="http://www.w3.org/2000/svg">
<path d="M188.672 250C210.245 250 227.734 232.511 227.734 210.938C227.734 189.364 210.245 171.875 188.672 171.875C167.098 171.875 149.609 189.364 149.609 210.938C149.609 232.511 167.098 250 188.672 250Z" fill="#19BCFE"/>
<path fill-rule="evenodd" clip-rule="evenodd" d="M110.547 328.125C120.907 328.125 130.843 324.009 138.168 316.684C145.494 309.358 149.609 299.423 149.609 289.062V250H110.547C100.187 250 90.2512 254.116 82.9255 261.441C75.5999 268.767 71.4844 278.702 71.4844 289.062C71.4844 299.423 75.5999 309.358 82.9255 316.684C90.2512 324.009 100.187 328.125 110.547 328.125V328.125Z" fill="#09CF83"/>
<path fill-rule="evenodd" clip-rule="evenodd" d="M110.547 250H149.609V171.875H110.547C100.187 171.875 90.2512 175.991 82.9255 183.316C75.5999 190.642 71.4844 200.577 71.4844 210.938C71.4844 221.298 75.5999 231.233 82.9255 238.559C90.2512 245.885 100.187 250 110.547 250V250Z" fill="#A259FF"/>
<path fill-rule="evenodd" clip-rule="evenodd" d="M110.547 171.875H149.609V93.75H110.547C100.187 93.75 90.2512 97.8655 82.9255 105.191C75.5999 112.517 71.4844 122.452 71.4844 132.813C71.4844 143.173 75.5999 153.108 82.9255 160.434C90.2512 167.76 100.187 171.875 110.547 171.875V171.875Z" fill="#F24E1E"/>
<path fill-rule="evenodd" clip-rule="evenodd" d="M188.672 171.875H149.609V93.75H188.672C199.032 93.75 208.968 97.8655 216.293 105.191C223.619 112.517 227.734 122.452 227.734 132.813C227.734 143.173 223.619 153.108 216.293 160.434C208.968 167.76 199.032 171.875 188.672 171.875Z" fill="#FF7262"/>
</svg>
