<svg width="1262" height="93" viewBox="0 0 1262 93" fill="none" xmlns="http://www.w3.org/2000/svg">
<rect width="1262" height="93" rx="46.5" fill="#94E1C1"/>
<path d="M411.207 58.6406H389.762L384.945 72H377.984L397.531 20.8125H403.438L423.02 72H416.094L411.207 58.6406ZM391.801 53.0859H409.203L400.484 29.1445L391.801 53.0859ZM427.309 52.6641C427.309 46.8281 428.691 42.1406 431.457 38.6016C434.223 35.0391 437.844 33.2578 442.32 33.2578C446.773 33.2578 450.301 34.7812 452.902 37.8281V18H459.406V72H453.43L453.113 67.9219C450.512 71.1094 446.891 72.7031 442.25 72.7031C437.844 72.7031 434.246 70.8984 431.457 67.2891C428.691 63.6797 427.309 58.9688 427.309 53.1562V52.6641ZM433.812 53.4023C433.812 57.7148 434.703 61.0898 436.484 63.5273C438.266 65.9648 440.727 67.1836 443.867 67.1836C447.992 67.1836 451.004 65.332 452.902 61.6289V44.1562C450.957 40.5703 447.969 38.7773 443.938 38.7773C440.75 38.7773 438.266 40.0078 436.484 42.4688C434.703 44.9297 433.812 48.5742 433.812 53.4023ZM467.949 52.6641C467.949 46.8281 469.332 42.1406 472.098 38.6016C474.863 35.0391 478.484 33.2578 482.961 33.2578C487.414 33.2578 490.941 34.7812 493.543 37.8281V18H500.047V72H494.07L493.754 67.9219C491.152 71.1094 487.531 72.7031 482.891 72.7031C478.484 72.7031 474.887 70.8984 472.098 67.2891C469.332 63.6797 467.949 58.9688 467.949 53.1562V52.6641ZM474.453 53.4023C474.453 57.7148 475.344 61.0898 477.125 63.5273C478.906 65.9648 481.367 67.1836 484.508 67.1836C488.633 67.1836 491.645 65.332 493.543 61.6289V44.1562C491.598 40.5703 488.609 38.7773 484.578 38.7773C481.391 38.7773 478.906 40.0078 477.125 42.4688C475.344 44.9297 474.453 48.5742 474.453 53.4023ZM551.516 72C551.141 71.25 550.836 69.9141 550.602 67.9922C547.578 71.1328 543.969 72.7031 539.773 72.7031C536.023 72.7031 532.941 71.6484 530.527 69.5391C528.137 67.4062 526.941 64.7109 526.941 61.4531C526.941 57.4922 528.441 54.4219 531.441 52.2422C534.465 50.0391 538.707 48.9375 544.168 48.9375H550.496V45.9492C550.496 43.6758 549.816 41.8711 548.457 40.5352C547.098 39.1758 545.094 38.4961 542.445 38.4961C540.125 38.4961 538.18 39.082 536.609 40.2539C535.039 41.4258 534.254 42.8438 534.254 44.5078H527.715C527.715 42.6094 528.383 40.7812 529.719 39.0234C531.078 37.2422 532.906 35.8359 535.203 34.8047C537.523 33.7734 540.066 33.2578 542.832 33.2578C547.215 33.2578 550.648 34.3594 553.133 36.5625C555.617 38.7422 556.906 41.7539 557 45.5977V63.1055C557 66.5977 557.445 69.375 558.336 71.4375V72H551.516ZM540.723 67.043C542.762 67.043 544.695 66.5156 546.523 65.4609C548.352 64.4062 549.676 63.0352 550.496 61.3477V53.543H545.398C537.43 53.543 533.445 55.875 533.445 60.5391C533.445 62.5781 534.125 64.1719 535.484 65.3203C536.844 66.4688 538.59 67.043 540.723 67.043ZM600.312 67.3945C602.633 67.3945 604.66 66.6914 606.395 65.2852C608.129 63.8789 609.09 62.1211 609.277 60.0117H615.43C615.312 62.1914 614.562 64.2656 613.18 66.2344C611.797 68.2031 609.945 69.7734 607.625 70.9453C605.328 72.1172 602.891 72.7031 600.312 72.7031C595.133 72.7031 591.008 70.9805 587.938 67.5352C584.891 64.0664 583.367 59.332 583.367 53.332V52.2422C583.367 48.5391 584.047 45.2461 585.406 42.3633C586.766 39.4805 588.711 37.2422 591.242 35.6484C593.797 34.0547 596.809 33.2578 600.277 33.2578C604.543 33.2578 608.082 34.5352 610.895 37.0898C613.73 39.6445 615.242 42.9609 615.43 47.0391H609.277C609.09 44.5781 608.152 42.5625 606.465 40.9922C604.801 39.3984 602.738 38.6016 600.277 38.6016C596.973 38.6016 594.406 39.7969 592.578 42.1875C590.773 44.5547 589.871 47.9883 589.871 52.4883V53.7188C589.871 58.1016 590.773 61.4766 592.578 63.8438C594.383 66.2109 596.961 67.3945 600.312 67.3945ZM621.02 52.6289C621.02 48.9023 621.746 45.5508 623.199 42.5742C624.676 39.5977 626.715 37.3008 629.316 35.6836C631.941 34.0664 634.93 33.2578 638.281 33.2578C643.461 33.2578 647.645 35.0508 650.832 38.6367C654.043 42.2227 655.648 46.9922 655.648 52.9453V53.4023C655.648 57.1055 654.934 60.4336 653.504 63.3867C652.098 66.3164 650.07 68.6016 647.422 70.2422C644.797 71.8828 641.773 72.7031 638.352 72.7031C633.195 72.7031 629.012 70.9102 625.801 67.3242C622.613 63.7383 621.02 58.9922 621.02 53.0859V52.6289ZM627.559 53.4023C627.559 57.6211 628.531 61.0078 630.477 63.5625C632.445 66.1172 635.07 67.3945 638.352 67.3945C641.656 67.3945 644.281 66.1055 646.227 63.5273C648.172 60.9258 649.145 57.293 649.145 52.6289C649.145 48.457 648.148 45.082 646.156 42.5039C644.188 39.9023 641.562 38.6016 638.281 38.6016C635.07 38.6016 632.48 39.8789 630.512 42.4336C628.543 44.9883 627.559 48.6445 627.559 53.4023ZM669.922 33.9609L670.098 38.1797C672.887 34.8984 676.648 33.2578 681.383 33.2578C686.703 33.2578 690.324 35.2969 692.246 39.375C693.512 37.5469 695.152 36.0703 697.168 34.9453C699.207 33.8203 701.609 33.2578 704.375 33.2578C712.719 33.2578 716.961 37.6758 717.102 46.5117V72H710.598V46.8984C710.598 44.1797 709.977 42.1523 708.734 40.8164C707.492 39.457 705.406 38.7773 702.477 38.7773C700.062 38.7773 698.059 39.5039 696.465 40.957C694.871 42.3867 693.945 44.3203 693.688 46.7578V72H687.148V47.0742C687.148 41.543 684.441 38.7773 679.027 38.7773C674.762 38.7773 671.844 40.5938 670.273 44.2266V72H663.77V33.9609H669.922ZM733.062 33.9609L733.238 38.1797C736.027 34.8984 739.789 33.2578 744.523 33.2578C749.844 33.2578 753.465 35.2969 755.387 39.375C756.652 37.5469 758.293 36.0703 760.309 34.9453C762.348 33.8203 764.75 33.2578 767.516 33.2578C775.859 33.2578 780.102 37.6758 780.242 46.5117V72H773.738V46.8984C773.738 44.1797 773.117 42.1523 771.875 40.8164C770.633 39.457 768.547 38.7773 765.617 38.7773C763.203 38.7773 761.199 39.5039 759.605 40.957C758.012 42.3867 757.086 44.3203 756.828 46.7578V72H750.289V47.0742C750.289 41.543 747.582 38.7773 742.168 38.7773C737.902 38.7773 734.984 40.5938 733.414 44.2266V72H726.91V33.9609H733.062ZM805.871 72.7031C800.715 72.7031 796.52 71.0156 793.285 67.6406C790.051 64.2422 788.434 59.707 788.434 54.0352V52.8398C788.434 49.0664 789.148 45.7031 790.578 42.75C792.031 39.7734 794.047 37.4531 796.625 35.7891C799.227 34.1016 802.039 33.2578 805.062 33.2578C810.008 33.2578 813.852 34.8867 816.594 38.1445C819.336 41.4023 820.707 46.0664 820.707 52.1367V54.8438H794.938C795.031 58.5938 796.121 61.6289 798.207 63.9492C800.316 66.2461 802.988 67.3945 806.223 67.3945C808.52 67.3945 810.465 66.9258 812.059 65.9883C813.652 65.0508 815.047 63.8086 816.242 62.2617L820.215 65.3555C817.027 70.2539 812.246 72.7031 805.871 72.7031ZM805.062 38.6016C802.438 38.6016 800.234 39.5625 798.453 41.4844C796.672 43.3828 795.57 46.0547 795.148 49.5H814.203V49.0078C814.016 45.7031 813.125 43.1484 811.531 41.3438C809.938 39.5156 807.781 38.6016 805.062 38.6016ZM834.418 33.9609L834.629 38.7422C837.535 35.0859 841.332 33.2578 846.02 33.2578C854.059 33.2578 858.113 37.793 858.184 46.8633V72H851.68V46.8281C851.656 44.0859 851.023 42.0586 849.781 40.7461C848.562 39.4336 846.652 38.7773 844.051 38.7773C841.941 38.7773 840.09 39.3398 838.496 40.4648C836.902 41.5898 835.66 43.0664 834.77 44.8945V72H828.266V33.9609H834.418ZM876.816 24.75V33.9609H883.918V38.9883H876.816V62.5781C876.816 64.1016 877.133 65.25 877.766 66.0234C878.398 66.7734 879.477 67.1484 881 67.1484C881.75 67.1484 882.781 67.0078 884.094 66.7266V72C882.383 72.4688 880.719 72.7031 879.102 72.7031C876.195 72.7031 874.004 71.8242 872.527 70.0664C871.051 68.3086 870.312 65.8125 870.312 62.5781V38.9883H863.387V33.9609H870.312V24.75H876.816Z" fill="#8063BF"/>
</svg>
